<?xml version="1.0" encoding="UTF-8"?>
<!DOCTYPE svg PUBLIC "-//W3C//DTD SVG 1.1//EN" "http://www.w3.org/Graphics/SVG/1.1/DTD/svg11.dtd">
<!-- Creator: CorelDRAW X6 -->
<svg xmlns="http://www.w3.org/2000/svg" xml:space="preserve" width="209.973mm" height="297.011mm" version="1.1" style="shape-rendering:geometricPrecision; text-rendering:geometricPrecision; image-rendering:optimizeQuality; fill-rule:evenodd; clip-rule:evenodd"
viewBox="0 0 20997 29696"
 xmlns:xlink="http://www.w3.org/1999/xlink">
 <defs>
  <style type="text/css">
   <![CDATA[
    .fil0 {fill:#F3F3F0}
   ]]>
  </style>
 </defs>
 <g id="Слой_x0020_1">
  <metadata id="CorelCorpID_0Corel-Layer"/>
  <polygon class="fil0" points="4430,2857 9729,2857 9729,10126 9729,10133 9729,10203 9659,10203 9443,10420 9228,10203 9074,10203 8859,10420 8643,10203 8453,10203 8237,10420 8021,10203 7868,10203 7652,10420 7437,10203 7281,10203 7068,10417 6854,10203 6696,10203 6483,10417 6270,10203 6114,10203 5898,10420 5682,10203 5529,10203 5313,10420 5098,10203 4945,10203 4729,10420 4513,10203 4430,10203 "/>
 </g>
</svg>
